# This file uses centimeters as units for non-parametric coordinates.

mtllib Ingridient2.mtl
g default
v -0.530541 2.170037 -2.315697
v 0.800378 2.170037 -2.315697
v -0.889416 2.170037 -2.656756
v -0.889416 2.170037 -3.698006
v -0.530541 2.170037 -4.039065
v 0.800378 2.170037 -4.039065
v 1.159253 2.170037 -2.656756
v 1.159253 2.170037 -3.698006
v -0.862023 2.170037 -2.525855
v -0.784419 2.170037 -2.415480
v -0.668276 2.170037 -2.341734
v 0.938115 2.170037 -2.341729
v 1.054256 2.170037 -2.415479
v 1.131856 2.170037 -2.525857
v -0.862023 2.170037 -3.828907
v -0.784419 2.170037 -3.939282
v -0.668276 2.170037 -4.013028
v 0.938115 2.170037 -4.013033
v 1.054256 2.170037 -3.939283
v 1.131856 2.170037 -3.828905
v 1.159253 0.750037 -2.656756
v 1.159253 0.750037 -3.698006
v 1.131856 0.750037 -2.525857
v 1.054256 0.750037 -2.415479
v 0.938115 0.750037 -2.341729
v 0.800378 0.750037 -2.315697
v -0.530541 0.750037 -2.315697
v -0.668276 0.750037 -2.341734
v -0.784419 0.750037 -2.415480
v -0.862023 0.750037 -2.525855
v -0.889416 0.750037 -2.656756
v -0.889416 0.750037 -3.698006
v -0.862023 0.750037 -3.828907
v -0.784419 0.750037 -3.939282
v -0.668276 0.750037 -4.013028
v -0.530541 0.750037 -4.039065
v 0.800378 0.750037 -4.039065
v 0.938115 0.750037 -4.013033
v 1.054256 0.750037 -3.939283
v 1.131856 0.750037 -3.828905
vt 0.998008 0.583133
vt 0.998008 0.851854
vt 0.822854 0.851854
vt 0.822854 0.583133
vt 0.998008 0.885635
vt 0.822854 0.885635
vt 0.998008 0.549352
vt 0.822854 0.549352
vt 0.998008 0.914121
vt 0.822854 0.914121
vt 0.998008 0.520866
vt 0.822854 0.520866
vt 0.998008 0.933154
vt 0.822854 0.933154
vt 0.998008 0.501833
vt 0.822854 0.501833
vt 0.816719 0.549350
vt 0.816719 0.583132
vt 0.641565 0.583132
vt 0.641565 0.549350
vt 0.816719 0.851852
vt 0.641565 0.851852
vt 0.816719 0.520865
vt 0.641565 0.520865
vt 0.816719 0.885634
vt 0.641565 0.885634
vt 0.816719 0.501833
vt 0.641565 0.501833
vt 0.816719 0.914119
vt 0.641565 0.914119
vt 0.816719 0.933151
vt 0.641565 0.933151
vt 0.090011 0.001863
vt 0.358731 0.001863
vt 0.392513 0.008495
vt 0.420998 0.027282
vt 0.440031 0.055400
vt 0.446749 0.088745
vt 0.446749 0.410958
vt 0.440030 0.444304
vt 0.420998 0.472422
vt 0.392513 0.491209
vt 0.358731 0.497841
vt 0.090011 0.497841
vt 0.056229 0.491209
vt 0.027744 0.472422
vt 0.008712 0.444304
vt 0.001992 0.410958
vt 0.001992 0.088745
vt 0.008710 0.055400
vt 0.027743 0.027282
vt 0.056229 0.008495
vt 0.811083 0.001863
vt 0.844864 0.008495
vt 0.873350 0.027282
vt 0.892383 0.055400
vt 0.899101 0.088746
vt 0.899101 0.410959
vt 0.892382 0.444304
vt 0.873350 0.472422
vt 0.844865 0.491210
vt 0.811083 0.497841
vt 0.542363 0.497841
vt 0.508581 0.491210
vt 0.480095 0.472422
vt 0.461063 0.444304
vt 0.454344 0.410959
vt 0.454344 0.088746
vt 0.461062 0.055400
vt 0.480095 0.027282
vt 0.508581 0.008495
vt 0.542363 0.001863
vt 0.635430 0.501833
vt 0.635430 0.535179
vt 0.460276 0.535179
vt 0.460276 0.501833
vt 0.635430 0.857392
vt 0.460276 0.857392
vt 0.635430 0.890737
vt 0.460276 0.890737
vt 0.278987 0.890737
vt 0.278987 0.857392
vt 0.454141 0.857392
vt 0.454141 0.890737
vt 0.278987 0.535179
vt 0.454141 0.535179
vt 0.278987 0.501833
vt 0.454141 0.501833
vn 0.000000 -1.000000 -0.000000
vn 0.000000 -1.000000 -0.000000
vn 0.000000 -1.000000 -0.000000
vn 0.000000 -1.000000 -0.000000
vn 0.000000 -1.000000 -0.000000
vn 0.000000 -1.000000 -0.000000
vn 0.000000 -1.000000 -0.000000
vn 0.000000 -1.000000 -0.000000
vn 0.000000 -1.000000 -0.000000
vn 0.000000 -1.000000 -0.000000
vn 0.000000 -1.000000 -0.000000
vn 0.000000 -1.000000 -0.000000
vn 0.000000 -1.000000 -0.000000
vn 0.000000 -1.000000 -0.000000
vn 0.000000 -1.000000 -0.000000
vn 0.000000 -1.000000 -0.000000
vn 0.000000 -1.000000 -0.000000
vn 0.000000 -1.000000 -0.000000
vn 0.000000 -1.000000 -0.000000
vn 0.000000 -1.000000 -0.000000
vn 0.000000 1.000000 -0.000000
vn 0.000000 1.000000 -0.000000
vn 0.000000 1.000000 -0.000000
vn 0.000000 1.000000 -0.000000
vn 0.000000 1.000000 -0.000000
vn 0.000000 1.000000 -0.000000
vn 0.000000 1.000000 -0.000000
vn 0.000000 1.000000 -0.000000
vn 0.000000 1.000000 -0.000000
vn 0.000000 1.000000 -0.000000
vn 0.000000 1.000000 -0.000000
vn 0.000000 1.000000 -0.000000
vn 0.000000 1.000000 -0.000000
vn 0.000000 1.000000 -0.000000
vn 0.000000 1.000000 -0.000000
vn 0.000000 1.000000 -0.000000
vn 0.000000 1.000000 -0.000000
vn 0.000000 1.000000 -0.000000
vn 0.000000 1.000000 -0.000000
vn 0.000000 1.000000 -0.000000
vn 0.999727 0.000000 -0.023367
vn 0.999727 0.000000 0.023367
vn 0.999727 0.000000 0.023367
vn 0.999727 0.000000 -0.023367
vn 0.916940 0.000000 0.399026
vn 0.916940 0.000000 0.399026
vn 0.688895 0.000000 0.724861
vn 0.688895 0.000000 0.724861
vn 0.365793 0.000000 0.930696
vn 0.365793 0.000000 0.930696
vn 0.017722 0.000000 0.999843
vn 0.017722 0.000000 0.999843
vn -0.017726 0.000000 0.999843
vn -0.017726 0.000000 0.999843
vn -0.365796 0.000000 0.930695
vn -0.365796 0.000000 0.930695
vn -0.688870 0.000000 0.724884
vn -0.688870 0.000000 0.724884
vn -0.916938 0.000000 0.399030
vn -0.916938 0.000000 0.399030
vn -0.999727 0.000000 0.023364
vn -0.999727 0.000000 0.023364
vn -0.999727 0.000000 -0.023364
vn -0.999727 0.000000 -0.023364
vn -0.916938 0.000000 -0.399030
vn -0.916938 0.000000 -0.399030
vn -0.688870 0.000000 -0.724884
vn -0.688870 0.000000 -0.724884
vn -0.365797 0.000000 -0.930695
vn -0.365797 0.000000 -0.930695
vn -0.017726 0.000000 -0.999843
vn -0.017726 0.000000 -0.999843
vn 0.017722 0.000000 -0.999843
vn 0.017722 0.000000 -0.999843
vn 0.365793 0.000000 -0.930696
vn 0.365793 0.000000 -0.930696
vn 0.688894 0.000000 -0.724862
vn 0.688894 0.000000 -0.724862
vn 0.916940 0.000000 -0.399025
vn 0.916940 0.000000 -0.399025
s off
g Ingridient2
usemtl initialShadingGroup
f 22/33/1 21/34/2 23/35/3 24/36/4 25/37/5 26/38/6 27/39/7 28/40/8 29/41/9 30/42/10 31/43/11 32/44/12 33/45/13 34/46/14 35/47/15 36/48/16 37/49/17 38/50/18 39/51/19 40/52/20
f 8/53/21 20/54/22 19/55/23 18/56/24 6/57/25 5/58/26 17/59/27 16/60/28 15/61/29 4/62/30 3/63/31 9/64/32 10/65/33 11/66/34 1/67/35 2/68/36 12/69/37 13/70/38 14/71/39 7/72/40
s 1
f 8/1/41 7/2/42 21/3/43 22/4/44
f 7/2/42 14/5/45 23/6/46 21/3/43
f 14/5/45 13/9/47 24/10/48 23/6/46
f 13/9/47 12/13/49 25/14/50 24/10/48
f 12/73/49 2/74/51 26/75/52 25/76/50
f 2/74/51 1/77/53 27/78/54 26/75/52
f 1/77/53 11/79/55 28/80/56 27/78/54
f 11/27/55 10/23/57 29/24/58 28/28/56
f 10/23/57 9/17/59 30/20/60 29/24/58
f 9/17/59 3/18/61 31/19/62 30/20/60
f 3/18/61 4/21/63 32/22/64 31/19/62
f 4/21/63 15/25/65 33/26/66 32/22/64
f 15/25/65 16/29/67 34/30/68 33/26/66
f 16/29/67 17/31/69 35/32/70 34/30/68
f 17/81/69 5/82/71 36/83/72 35/84/70
f 5/82/71 6/85/73 37/86/74 36/83/72
f 6/85/73 18/87/75 38/88/76 37/86/74
f 18/15/75 19/11/77 39/12/78 38/16/76
f 19/11/77 20/7/79 40/8/80 39/12/78
f 20/7/79 8/1/41 22/4/44 40/8/80
