# This file uses centimeters as units for non-parametric coordinates.

mtllib Torso_Flamingo.mtl
g default
v -5.271387 4.603008 3.876498
v -5.582825 4.603266 3.877169
v -5.272017 5.043334 3.339044
v -5.583456 5.043595 3.339715
v -3.328701 13.217067 8.035792
v -7.525012 13.214969 8.032047
v -3.329831 9.302021 12.562844
v -7.526143 9.299924 12.559101
v -3.329265 12.132390 6.668338
v -3.329265 7.870124 11.269102
v -7.525578 7.870124 11.269102
v -7.525578 12.132390 6.668338
v -3.943867 13.445346 10.463435
v -6.912034 13.444363 10.464172
v -6.910976 10.062669 13.302173
v -3.942809 10.063651 13.461185
v -5.427106 4.603138 3.876835
v -5.427737 5.043472 3.339379
v -5.427422 12.132390 6.668338
v -5.426857 13.216017 8.033922
v -5.427950 13.444855 10.463807
v -5.426892 10.063160 13.301806
v -5.427987 9.300972 12.560972
v -5.427422 7.870124 11.269102
v -5.129337 4.823060 3.607459
v -3.184679 10.001257 8.968721
v -3.184680 11.259617 10.299446
v -3.841069 13.211444 11.322124
v -5.427422 13.210918 11.322516
v -7.013774 13.210393 11.322909
v -7.670163 11.257374 10.295447
v -7.670165 10.001257 8.968721
v -5.725506 4.823548 3.608750
v -5.427422 4.823301 3.608106
v -5.200362 4.713030 3.741979
v -3.256972 8.935690 10.118911
v -3.257256 10.280818 11.431145
v -3.891939 12.748192 12.134007
v -6.962374 12.747177 12.134766
v -7.598153 10.278649 11.427273
v -7.597871 8.935690 10.118911
v -5.654165 4.713407 3.742960
v -5.427264 4.713223 3.742468
v -4.490135 7.786245 4.504631
v -4.346688 7.178712 5.272789
v -4.418224 6.875035 5.657037
v -4.489759 6.571355 6.041286
v -5.427234 6.571450 6.041473
v -6.364707 6.571547 6.041658
v -6.436430 6.875313 5.657579
v -6.508154 7.179078 5.273499
v -6.365083 7.786434 4.505002
v -5.427609 7.786341 4.504814
v -4.838394 6.540868 3.964513
v -4.695289 6.268678 4.374423
v -4.766597 6.132705 4.579591
v -4.837905 5.996715 4.784763
v -5.427177 5.996843 4.785002
v -6.016447 5.996975 4.785237
v -6.088000 6.133072 4.580283
v -6.159553 6.269170 4.375330
v -6.016937 6.541137 3.964986
v -5.427666 6.541000 3.964752
v -3.775482 7.310636 9.314824
v -3.683683 8.183035 8.481098
v -3.611668 9.030624 7.560722
v -3.755836 10.725869 5.720096
v -5.427492 10.725904 5.720164
v -7.099145 10.725939 5.720234
v -7.243174 9.030754 7.560985
v -7.171090 8.183132 8.481298
v -7.099007 7.335509 9.401612
v -5.426790 12.748193 12.133994
v -5.235874 4.658024 3.809236
v -4.802251 6.064709 4.682176
v -4.453991 6.723195 5.849162
v -3.719690 7.759238 8.941286
v -3.293119 8.402906 10.694007
v -3.293543 9.791420 11.996995
v -3.917374 11.405922 12.717724
v -6.936675 11.404923 12.718469
v -7.562148 9.789286 11.993187
v -7.561724 8.402906 10.694007
v -7.135049 7.759321 8.941455
v -6.400569 6.723430 5.849619
v -6.052223 6.065027 4.682760
v -5.618495 4.658341 3.810063
v -5.427185 4.658184 3.809650
v -4.053397 9.559896 5.177864
v -3.906769 8.310662 6.594275
v -3.977273 7.684565 7.303167
v -4.012581 7.371100 7.657600
v -4.065226 7.038347 7.934898
v -6.789378 7.038464 7.935137
v -6.842085 7.371241 7.657887
v -6.877452 7.684732 7.303506
v -6.948074 8.310885 6.594723
v -6.801681 9.560016 5.178098
v -5.427539 9.560990 5.178114
v -3.911712 7.183996 8.663405
v -3.876031 7.550236 8.258783
v -3.840377 7.916339 7.854137
v -3.769123 8.648127 7.044836
v -3.914512 10.110255 5.426983
v -5.427517 10.110822 5.427143
v -6.940520 10.110349 5.427172
v -7.085719 8.648306 7.045198
v -7.014370 7.916474 7.854413
v -6.978669 7.550352 8.259016
v -6.942941 7.184088 8.663594
v -5.427302 7.040975 7.931480
v -5.427327 7.216013 8.636076
v -5.427351 7.381047 9.300393
v -5.426841 11.405368 12.718034
vt 0.380789 0.004627
vt 0.619207 0.004627
vt 0.384964 0.247766
vt 0.614533 0.247377
vt 0.375370 0.506322
vt 0.624638 0.506314
vt 0.371691 0.754214
vt 0.626690 0.758532
vt 0.385415 0.999963
vt 0.614582 0.999962
vt 0.875682 0.000821
vt 0.873187 0.249151
vt 0.124610 0.000472
vt 0.126809 0.249147
vt 0.249293 0.253201
vt 0.374610 0.375105
vt 0.250234 -0.000736
vt 0.373397 0.874026
vt 0.626537 0.874315
vt 0.749808 -0.000692
vt 0.625411 0.375117
vt 0.750674 0.253201
vt 0.381754 0.519040
vt 0.623825 0.519133
vt 0.613719 0.749653
vt 0.382392 0.750482
vt 0.500021 0.003921
vt 0.500094 0.999991
vt 0.500008 0.249284
vt 0.500017 0.375401
vt 0.499354 0.499216
vt 0.490722 0.490523
vt 0.499934 0.752041
vt 0.500064 0.767845
vt 0.499934 0.874835
vt 0.374534 0.124800
vt 0.250000 0.125000
vt 0.125000 0.125000
vt 0.375000 0.625000
vt 0.374688 0.610362
vt 0.263431 0.342807
vt 0.631699 0.619231
vt 0.625000 0.625000
vt 0.875000 0.125000
vt 0.750000 0.125000
vt 0.625216 0.124482
vt 0.499722 0.124924
vt 0.378303 0.064606
vt 0.250000 0.062500
vt 0.125000 0.062500
vt 0.375000 0.687500
vt 0.376726 0.687691
vt 0.813532 0.681605
vt 0.625000 0.687500
vt 0.875000 0.062500
vt 0.750000 0.062500
vt 0.622424 0.063538
vt 0.500323 0.062463
vt 0.325940 0.237736
vt 0.376622 0.299975
vt 0.324692 0.125000
vt 0.324692 0.062500
vt 0.325044 0.009527
vt 0.376201 0.949705
vt 0.500223 0.949771
vt 0.623770 0.949704
vt 0.674955 0.009525
vt 0.675308 0.062500
vt 0.675308 0.125000
vt 0.623356 0.299967
vt 0.674039 0.237675
vt 0.500295 0.299957
vt 0.349292 0.244488
vt 0.378555 0.277364
vt 0.347100 0.125000
vt 0.347100 0.062500
vt 0.347074 0.007803
vt 0.377967 0.972064
vt 0.500096 0.972102
vt 0.622029 0.972064
vt 0.652925 0.007783
vt 0.652900 0.062500
vt 0.652900 0.125000
vt 0.621360 0.277303
vt 0.650610 0.244386
vt 0.500719 0.277520
vt 0.278743 0.000754
vt 0.373176 0.903309
vt 0.277449 0.062420
vt 0.277447 0.124681
vt 0.277384 0.248220
vt 0.376056 0.347593
vt 0.500020 0.347615
vt 0.623834 0.347588
vt 0.722630 0.248584
vt 0.722554 0.125032
vt 0.722548 0.062820
vt 0.624999 0.902360
vt 0.722476 0.000063
vt 1.002034 0.002912
vt 0.026682 0.973450
vt 0.378513 0.033221
vt 0.347100 0.031250
vt 0.324692 0.031250
vt 0.277448 0.031313
vt 0.250000 0.031250
vt 0.125000 0.031250
vt 0.375000 0.718750
vt 0.375000 0.718750
vt 0.710650 0.737064
vt 0.625000 0.718750
vt 0.875000 0.031250
vt 0.750000 0.031250
vt 0.722550 0.031505
vt 0.675308 0.031250
vt 0.652900 0.031250
vt 0.621211 0.033017
vt 0.500396 0.030816
vt 0.296882 0.249501
vt 0.374990 0.328268
vt 0.296729 0.123814
vt 0.296725 0.062255
vt 0.296720 0.031078
vt 0.297804 -0.000309
vt 0.371949 0.923147
vt 0.628063 0.923148
vt 0.702196 -0.000309
vt 0.703281 0.031174
vt 0.703280 0.062562
vt 0.703273 0.123880
vt 0.624768 0.328281
vt 0.703122 0.249243
vt 0.500096 0.328293
vt 0.287725 0.000000
vt 0.375000 0.912725
vt 0.287725 0.031250
vt 0.287725 0.062500
vt 0.287725 0.125000
vt 0.287772 0.249042
vt 0.375280 0.337300
vt 0.500118 0.337316
vt 0.624389 0.337319
vt 0.712289 0.249158
vt 0.712275 0.125000
vt 0.712275 0.062500
vt 0.712275 0.031250
vt 0.625000 0.912725
vt 0.712275 0.000000
vt 0.500118 0.922678
vt 0.500079 0.912578
vt 0.500043 0.903056
vt 0.263362 0.862720
vn -0.922836 -0.364682 0.124017
vn -0.924580 -0.380918 0.007326
vn -0.927274 -0.373772 0.021376
vn -0.923314 -0.362970 0.125476
vn 0.923651 -0.362436 0.124534
vn 0.927478 -0.373293 0.020887
vn 0.924776 -0.380450 0.006838
vn 0.923173 -0.364143 0.123090
vn 0.968240 0.115491 0.221748
vn 0.993771 -0.106577 -0.032557
vn 0.990813 -0.125689 -0.049923
vn 0.972782 0.099049 0.209487
vn -0.971853 0.093501 0.216237
vn -0.990888 -0.125202 -0.049659
vn -0.993865 -0.105841 -0.032107
vn -0.967597 0.102470 0.230772
vn -0.921325 0.183948 0.342525
vn -0.891016 0.219425 0.397420
vn 0.923424 0.187499 0.334862
vn 0.905327 0.226370 0.359361
vn 0.931035 -0.087071 -0.354390
vn 0.954288 -0.168807 -0.246656
vn 0.957028 -0.183445 -0.224601
vn 0.902149 -0.064117 -0.426635
vn 0.989654 0.121547 0.076237
vn 0.993425 -0.074084 -0.087280
vn 0.992195 -0.051279 -0.113667
vn 0.994068 0.107825 0.014220
vn 0.948960 0.262307 0.175126
vn 0.937774 0.314715 0.146746
vn -0.994035 0.108121 0.014277
vn -0.989636 0.121717 0.076199
vn -0.949193 0.261705 0.174765
vn -0.938127 0.313929 0.146175
vn -0.992196 -0.051185 -0.113701
vn -0.993417 -0.074077 -0.087381
vn -0.957190 -0.184152 -0.223327
vn -0.954395 -0.169323 -0.245886
vn -0.931311 -0.087658 -0.353520
vn -0.902721 -0.064960 -0.425294
vn 0.933156 -0.358086 0.031516
vn 0.925257 -0.356561 0.129471
vn 0.983775 0.081626 0.159764
vn 0.991763 -0.120016 -0.044754
vn 0.952870 0.193268 0.233849
vn -0.983759 0.081784 0.159781
vn -0.952939 0.193061 0.233739
vn -0.991733 -0.120162 -0.045018
vn -0.924928 -0.357053 0.130464
vn -0.932974 -0.358511 0.032081
vn 0.967963 -0.170069 -0.184727
vn 0.968220 -0.144964 -0.203803
vn 0.962921 -0.229519 -0.141790
vn 0.959997 -0.236721 -0.149564
vn 0.960619 -0.235546 -0.147407
vn -0.960551 -0.235852 -0.147359
vn -0.960039 -0.236487 -0.149659
vn -0.967960 -0.170104 -0.184709
vn -0.962901 -0.229584 -0.141818
vn -0.968223 -0.144988 -0.203769
vn 0.959901 -0.122269 -0.252270
vn 0.963149 -0.175358 -0.203944
vn 0.950319 -0.297006 -0.093173
vn 0.942222 -0.317417 -0.107068
vn 0.941466 -0.315095 -0.119820
vn -0.942139 -0.317684 -0.107012
vn -0.941383 -0.315354 -0.119792
vn -0.950257 -0.297234 -0.093077
vn -0.963163 -0.175572 -0.203697
vn -0.959951 -0.122481 -0.251979
vn 0.950425 -0.281725 -0.131615
vn 0.949607 -0.281835 -0.137166
vn 0.966037 -0.175638 -0.189536
vn 0.956487 -0.266619 -0.118517
vn 0.965109 -0.130395 -0.227071
vn -0.966039 -0.175766 -0.189408
vn -0.965132 -0.130515 -0.226903
vn -0.956447 -0.266776 -0.118489
vn -0.949550 -0.282022 -0.137185
vn -0.950370 -0.281910 -0.131620
vn 0.968213 -0.169234 -0.184182
vn 0.968216 -0.136876 -0.209340
vn 0.961690 -0.239526 -0.133339
vn 0.957497 -0.250610 -0.142805
vn 0.956572 -0.251928 -0.146633
vn -0.957459 -0.250708 -0.142892
vn -0.956566 -0.251908 -0.146711
vn -0.961664 -0.239624 -0.133349
vn -0.968211 -0.169305 -0.184127
vn -0.968225 -0.136936 -0.209259
vn -0.002018 -0.773545 -0.633738
vn -0.002017 -0.773521 -0.633768
vn -0.002009 -0.773521 -0.633768
vn -0.002010 -0.773539 -0.633745
vn -0.002010 -0.773540 -0.633744
vn -0.002009 -0.773543 -0.633740
vn -0.002013 -0.773537 -0.633748
vn -0.002008 -0.773537 -0.633748
vn -0.002009 -0.773536 -0.633749
vn -0.002015 -0.773537 -0.633748
vn -0.000306 0.394217 -0.919017
vn -0.000571 0.385446 -0.922730
vn -0.000571 0.385350 -0.922770
vn -0.000333 0.393263 -0.919426
vn -0.000045 0.366005 -0.930613
vn -0.000129 0.368687 -0.929553
vn 0.000042 0.374911 -0.927061
vn -0.000085 0.371335 -0.928499
vn -0.000042 0.422184 -0.906510
vn 0.000051 0.423414 -0.905936
vn -0.000005 0.534013 -0.845477
vn -0.000016 0.527392 -0.849622
vn 0.000039 0.686725 -0.726917
vn 0.000043 0.696112 -0.717933
vn -0.000182 0.937309 -0.348499
vn -0.000162 0.928348 -0.371713
vn -0.000389 0.995595 -0.093761
vn -0.000389 0.995597 -0.093740
vn -0.000253 0.938120 0.346311
vn -0.000254 0.964837 0.262849
vn -0.000254 0.964837 0.262850
vn -0.000254 0.964837 0.262849
vn -0.000086 0.868626 0.495468
vn -0.000086 0.868626 0.495468
vn -0.000086 0.868626 0.495468
vn -0.000086 0.868626 0.495468
vn -0.000251 0.921517 0.388337
vn -0.000244 0.868627 0.495467
vn -0.000244 0.868627 0.495467
vn -0.000255 0.964837 0.262848
vn -0.000161 0.928296 -0.371842
vn -0.000388 0.995593 -0.093783
vn 0.000043 0.695935 -0.718105
vn -0.000026 0.533991 -0.845490
vn -0.000134 0.423383 -0.905951
vn -0.000207 0.374871 -0.927077
vn -0.000202 0.365950 -0.930635
vn -0.000305 0.394116 -0.919061
vn -0.000571 0.385254 -0.922810
vn -0.002004 -0.773537 -0.633748
vn -0.002002 -0.773535 -0.633751
vn -0.002007 -0.773543 -0.633740
vn -0.002004 -0.773542 -0.633742
vn -0.002001 -0.773520 -0.633768
vn 0.000124 -0.828097 0.560585
vn 0.000451 -0.545871 0.837869
vn 0.000454 -0.545942 0.837823
vn 0.000162 -0.804530 0.593912
vn 0.001050 -0.957969 0.286868
vn -0.000029 -0.954659 0.297703
vn -0.025703 -0.975219 0.219745
vn 0.000129 -0.975319 0.220802
vn -0.000029 -0.972275 0.233838
vn -0.006294 -0.972559 0.232572
vn 0.000129 -0.828028 0.560686
vn -0.001110 -0.957957 0.286909
vn 0.000457 -0.546012 0.837777
vn -0.000001 -0.697400 0.716682
vn -0.000125 -0.676659 0.736297
vn -0.005166 -0.686300 0.727300
vn -0.015846 -0.719000 0.694830
vn -0.000306 -0.847215 0.531250
vn 0.008522 -0.834839 0.550428
vn -0.009032 -0.836355 0.548114
vn -0.007905 -0.688371 0.725316
vn -0.030046 -0.737646 0.674519
vn 0.006239 -0.972563 0.232556
vn 0.025015 -0.974736 0.221957
vn -0.021844 -0.967205 0.253055
vn -0.000391 -0.967942 0.251173
vn 0.021166 -0.967173 0.253235
vn -0.023690 0.421022 0.906741
vn 0.000017 0.398819 0.917029
vn 0.000095 0.398819 0.917030
vn -0.011975 0.410169 0.911931
vn 0.000147 0.398818 0.917030
vn 0.000172 0.398818 0.917030
vn -0.024420 0.421746 0.906385
vn 0.000121 0.398819 0.917030
vn -0.047724 0.443059 0.895221
s 1
g Flamingo_Body
usemtl initialShadingGroup
f 2/2/1 59/81/2 86/116/3 87/117/4
s 2
f 74/102/5 75/103/6 57/77/7 1/1/8
f 7/13/9 10/17/10 78/106/11 79/107/12
s 1
f 82/112/13 83/113/14 11/20/15 8/11/16
f 81/110/17 82/111/13 8/8/16 15/25/18
s 2
f 7/7/9 79/108/12 80/109/19 16/26/20
f 54/73/21 55/75/22 25/36/23 3/3/24
f 27/38/25 26/37/26 9/15/27 5/14/28
f 28/40/29 27/39/25 5/5/28 13/23/30
s 1
f 6/6/31 31/43/32 30/42/33 14/24/34
f 12/22/35 32/45/36 31/44/32 6/12/31
f 33/46/37 61/83/38 62/85/39 4/4/40
s 2
f 25/36/23 55/75/22 56/76/41 35/48/42
f 37/50/43 36/49/44 26/37/26 27/38/25
f 38/52/45 37/51/43 27/39/25 28/40/29
s 1
f 30/42/33 31/43/32 40/54/46 39/53/47
f 31/44/32 32/45/36 41/56/48 40/55/46
f 42/57/49 60/82/50 61/83/38 33/46/37
s 2
f 9/15/27 26/37/26 66/90/51 67/91/52
f 65/89/53 66/90/51 26/37/26 36/49/44
f 64/87/54 77/105/55 78/106/11 10/17/10
s 1
f 83/113/14 84/114/56 72/99/57 11/20/15
f 70/96/58 71/97/59 41/56/48 32/45/36
f 69/95/60 70/96/58 32/45/36 12/22/35
s 2
f 44/59/61 45/61/62 55/75/22 54/73/21
f 56/76/41 55/75/22 45/61/62 46/62/63
f 57/77/7 75/103/6 76/104/64 47/63/65
s 1
f 85/115/66 86/116/3 59/81/2 49/67/67
f 61/83/38 60/82/50 50/68/68 51/69/69
f 62/85/39 61/83/38 51/69/69 52/71/70
s 2
f 47/63/65 76/104/64 92/123/71 93/124/72
f 46/62/63 45/61/62 90/121/73 91/122/74
f 89/119/75 90/121/73 45/61/62 44/59/61
s 1
f 52/71/70 51/69/69 97/130/76 98/132/77
f 51/69/69 50/68/68 96/129/78 97/130/76
f 94/127/79 95/128/80 85/115/66 49/67/67
s 2
f 35/48/42 56/76/41 75/103/6 74/102/5
f 76/104/64 75/103/6 56/76/41 46/62/63
f 91/122/74 92/123/71 76/104/64 46/62/63
f 78/106/11 77/105/55 65/89/53 36/49/44
f 79/107/12 78/106/11 36/49/44 37/50/43
f 80/109/19 79/108/12 37/51/43 38/52/45
s 1
f 39/53/47 40/54/46 82/111/13 81/110/17
f 40/55/46 41/56/48 83/113/14 82/112/13
f 71/97/59 84/114/56 83/113/14 41/56/48
f 50/68/68 85/115/66 95/128/80 96/129/78
f 60/82/50 86/116/3 85/115/66 50/68/68
f 87/117/4 86/116/3 60/82/50 42/57/49
s 2
f 67/91/52 66/90/51 103/138/81 104/139/82
f 102/137/83 103/138/81 66/90/51 65/89/53
f 77/105/55 101/136/84 102/137/83 65/89/53
f 100/134/85 101/136/84 77/105/55 64/87/54
s 1
f 84/114/56 109/146/86 110/148/87 72/99/57
f 108/145/88 109/146/86 84/114/56 71/97/59
f 107/144/89 108/145/88 71/97/59 70/96/58
f 106/143/90 107/144/89 70/96/58 69/95/60
s 2
f 93/124/72 92/123/71 101/136/84 100/134/85
f 102/137/83 101/136/84 92/123/71 91/122/74
f 91/122/74 90/121/73 103/138/81 102/137/83
f 104/139/82 103/138/81 90/121/73 89/119/75
s 1
f 98/132/77 97/130/76 107/144/89 106/143/90
f 97/130/76 96/129/78 108/145/88 107/144/89
f 96/129/78 95/128/80 109/146/86 108/145/88
f 110/148/87 109/146/86 95/128/80 94/127/79
s 9
f 74/102/91 1/1/92 17/27/93 88/118/94
f 35/48/95 74/102/91 88/118/94 43/58/96
f 25/36/97 35/48/95 43/58/96 34/47/98
f 18/29/99 3/3/100 25/36/97 34/47/98
s 10
f 54/74/101 3/3/102 18/29/103 63/86/104
f 44/60/105 54/74/101 63/86/104 53/72/106
f 89/120/107 44/60/105 53/72/106 99/133/108
f 105/141/109 104/140/110 89/120/107 99/133/108
f 67/92/111 104/140/110 105/141/109 68/93/112
f 19/30/113 9/16/114 67/92/111 68/93/112
f 20/31/115 5/5/116 9/16/114 19/30/113
f 21/32/117 13/23/118 5/5/116 20/31/115
s 11
f 29/41/119 28/40/120 13/23/121 21/32/122
s off
f 73/101/123 38/52/124 28/40/125 29/41/126
s 11
f 30/100/127 39/53/128 73/101/129 29/41/119
f 14/24/130 30/42/127 29/41/119 21/32/122
s 10
f 6/6/131 14/24/132 21/32/117 20/31/115
f 19/30/113 12/21/133 6/6/131 20/31/115
f 69/94/134 12/21/133 19/30/113 68/93/112
f 106/142/135 69/94/134 68/93/112 105/141/109
f 98/131/136 106/142/135 105/141/109 99/133/108
f 53/72/106 52/70/137 98/131/136 99/133/108
f 63/86/104 62/84/138 52/70/137 53/72/106
f 4/4/139 62/84/138 63/86/104 18/29/103
s 9
f 34/47/98 33/46/140 4/4/141 18/29/99
f 43/58/96 42/57/142 33/46/140 34/47/98
f 88/118/94 87/117/143 42/57/142 43/58/96
f 2/2/144 87/117/143 88/118/94 17/27/93
s 12
f 59/80/145 2/10/146 17/28/147 58/79/148
f 49/66/149 59/80/145 58/79/148 48/65/150
f 100/135/151 112/150/152 111/149/153 93/125/154
f 58/79/148 57/78/155 47/64/156 48/65/150
f 17/28/147 1/9/157 57/78/155 58/79/148
f 15/25/158 8/8/159 23/34/160 22/33/161
f 24/35/162 23/34/160 8/8/159 11/19/163
f 10/18/164 7/7/165 23/34/160 24/35/162
f 22/33/161 23/34/160 7/7/165 16/26/166
f 94/126/167 111/149/153 112/150/152 110/147/168
f 48/65/150 111/149/153 94/126/167 49/66/149
f 93/125/154 111/149/153 48/65/150 47/64/156
f 64/88/169 10/18/164 24/35/162 113/151/170
f 72/98/171 113/151/170 24/35/162 11/19/163
f 110/147/168 112/150/152 113/151/170 72/98/171
f 64/88/169 113/151/170 112/150/152 100/135/151
s 15
f 80/109/172 38/52/173 73/101/174 114/152/175
f 81/110/176 114/152/175 73/101/174 39/53/177
f 22/33/178 114/152/175 81/110/176 15/25/179
f 80/109/172 114/152/175 22/33/178 16/26/180
